<?xml version="1.0" encoding="utf-8"?>
<!-- Generator: Adobe Illustrator 27.9.0, SVG Export Plug-In . SVG Version: 6.00 Build 0)  -->
<svg version="1.1" id="Vrstva_1" xmlns="http://www.w3.org/2000/svg" xmlns:xlink="http://www.w3.org/1999/xlink" x="0px" y="0px"
	 viewBox="0 0 1597 514.9" style="enable-background:new 0 0 1597 514.9;" xml:space="preserve">
<style type="text/css">
	.st0{fill:none;}
</style>
<g>
	<g>
		<path d="M183.6,183.6h212.1l-76.1-76.1h-96.5c-17.8,0-34.9,7.1-47.4,19.6l-48.6,48.6c-12.6,12.6-19.6,29.6-19.6,47.4v88.1h76.1
			V183.6z"/>
		<path d="M331.3,331.3H119.2l76.1,76.1h96.5c17.8,0,34.9-7.1,47.4-19.6l48.6-48.6c12.6-12.6,19.6-29.6,19.6-47.4v-88.1h-76.1V331.3
			z"/>
		<circle cx="257.5" cy="257.5" r="53.7"/>
	</g>
	<g>
		<path d="M451.4,183.6h111.9l-6.1,33.8h-35.9l-20.1,114h-40.1l20-114h-35.9L451.4,183.6z"/>
		<path d="M540.6,281.7c0-38.8,28.3-69.4,70.1-69.4c34,0,54.9,20.3,54.9,51.7c0,38.8-28.3,69.4-70.1,69.4
			C561.5,333.4,540.6,313.2,540.6,281.7z M599.1,301.8c18.8,0,26.4-19.8,26.4-36.1c0-13.7-6.5-21.7-18.4-21.7
			c-18.8,0-26.4,19.8-26.4,36.1C580.7,293.8,587.3,301.8,599.1,301.8z"/>
		<path d="M701.3,373.5h-38l7.4-42.2l20.7-116.9h33.3l-2.7,15.2c9.1-11.2,21.3-17.3,35.7-17.3c26.8,0,43.1,20,43.1,50.9
			c0,36.7-22,70.3-60.4,70.3c-13.5,0-23.2-5.1-29.8-13.1l-1.9,11L701.3,373.5z M734.6,301.8c18.8,0,26.4-19.8,26.4-36.1
			c0-13.7-6.5-21.7-18.4-21.7c-18.8,0-26.4,19.8-26.4,36.1C716.2,293.8,722.8,301.8,734.6,301.8z"/>
		<path d="M806.1,296.1l38.2-13.7c3.2,12.9,14.6,20.5,27.9,20.5c10.6,0,18.8-5.9,18.8-13.5c0-6.1-4-8.9-13.1-11.4l-21.3-6.1
			c-23-6.5-35.9-18.8-35.9-39.7c0-28.3,27-50.7,61.6-50.7c27.9,0,49.6,12.2,59.1,36.3l-38,13.7c-3.8-12.5-13.1-19.4-24.9-19.4
			c-9.7,0-17.5,5.7-17.5,13.1c0,5.1,4.2,8,12.2,10.3l21.3,6.1c24.1,7,37.1,19.2,37.1,40.7c0,28.7-27.9,51.1-63.3,51.1
			C838.9,333.4,816.3,320.8,806.1,296.1z"/>
		<path d="M970.1,373.5h-38l7.4-42.2l20.7-116.9h33.3l-2.7,15.2c9.1-11.2,21.3-17.3,35.7-17.3c26.8,0,43.1,20,43.1,50.9
			c0,36.7-21.9,70.3-60.4,70.3c-13.5,0-23.2-5.1-29.8-13.1l-1.9,11L970.1,373.5z M1003.4,301.8c18.8,0,26.4-19.8,26.4-36.1
			c0-13.7-6.5-21.7-18.4-21.7c-18.8,0-26.4,19.8-26.4,36.1C985.1,293.8,991.6,301.8,1003.4,301.8z"/>
		<path d="M1099.5,322.5l-21.9-108.1h39.9l8.4,68.4l31.7-68.4h40.3l-87,159.1h-39.3L1099.5,322.5z"/>
		<path d="M1176.6,293.3h42.2l-6.8,38h-42.2L1176.6,293.3z"/>
		<path d="M1236.3,282.4c0-37.8,25.7-70.1,67.5-70.1c30,0,47.5,16.9,51.1,43.7l-39.5,7.4c-0.6-12.2-5.7-19.4-15.2-19.4
			c-17.1,0-23.8,21.5-23.8,36.9c0,13.3,5.7,20.9,15.8,20.9c8.9,0,16-6.3,20.5-17.7l38.6,6.3c-10.6,27.9-33.8,43.1-63.7,43.1
			C1255.9,333.4,1236.3,313.2,1236.3,282.4z"/>
		<path d="M1358.5,302.8l55.7-57.8h-44.5l5.5-30.6h92l-5.1,28.5l-55.7,57.8h46.6l-5.5,30.6h-94.1L1358.5,302.8z"/>
	</g>
</g>
<g>
	<path class="st0" d="M1512.1,144.2c1.4-1.1,2.1-2.7,2.1-4.7c0-2.1-0.7-3.7-2.1-4.8c-1.4-1.1-3.4-1.7-5.9-1.7h-6.4v13h6.4
		C1508.7,145.9,1510.7,145.3,1512.1,144.2z"/>
	<path class="st0" d="M1527.2,123.2c-2.7-2.8-5.9-4.9-9.6-6.5c-3.7-1.5-7.8-2.3-12.3-2.3c-4.4,0-8.5,0.8-12.2,2.4
		c-3.8,1.6-7,3.8-9.8,6.6c-2.8,2.8-4.9,6.1-6.4,9.9c-1.5,3.7-2.3,7.8-2.3,12.2c0,4.4,0.8,8.5,2.3,12.2c1.5,3.8,3.6,7.1,6.4,9.9
		c2.7,2.8,6,5,9.7,6.6c3.7,1.6,7.8,2.4,12.2,2.4c4.4,0,8.4-0.8,12.2-2.4c3.7-1.6,7-3.8,9.8-6.6c2.8-2.8,5-6.1,6.5-9.9
		c1.5-3.8,2.3-7.9,2.3-12.3c0-4.4-0.8-8.5-2.3-12.2C1532.1,129.3,1529.9,126,1527.2,123.2z M1515.2,166.4l-7.8-12.1
		c-0.2,0-0.3,0-0.5,0h-7v12.1h-11.2v-41.8h18.2c5.7,0,10.1,1.3,13.4,4c3.2,2.7,4.8,6.3,4.8,10.9c0,4.8-1.6,8.5-4.8,11
		c-0.9,0.7-1.9,1.3-3,1.8l9.1,14.1H1515.2z"/>
	<path d="M1520.3,150.5c3.2-2.5,4.8-6.2,4.8-11c0-4.6-1.6-8.2-4.8-10.9c-3.2-2.7-7.7-4-13.4-4h-18.2v41.8h11.2v-12.1h7
		c0.2,0,0.3,0,0.5,0l7.8,12.1h11.2l-9.1-14.1C1518.4,151.8,1519.4,151.2,1520.3,150.5z M1499.8,145.9v-13h6.4c2.5,0,4.5,0.6,5.9,1.7
		c1.4,1.1,2.1,2.8,2.1,4.8c0,2-0.7,3.6-2.1,4.7c-1.4,1.1-3.4,1.7-5.9,1.7H1499.8z"/>
	<path d="M1540.4,130.4c-1.9-4.6-4.6-8.6-8-12c-3.4-3.4-7.4-6.1-12.1-8c-4.6-1.9-9.6-2.9-15-2.9c-5.4,0-10.4,1-15,2.9
		c-4.6,1.9-8.7,4.6-12.1,8.1c-3.4,3.5-6.1,7.5-8.1,12.1c-1.9,4.6-2.9,9.6-2.9,14.9c0,5.3,1,10.3,2.9,14.9c1.9,4.6,4.6,8.6,8,12.1
		c3.4,3.5,7.5,6.2,12.1,8.1c4.6,1.9,9.6,2.9,15,2.9c5.4,0,10.4-1,15-2.9c4.6-1.9,8.6-4.6,12.1-8.1c3.5-3.5,6.2-7.5,8.1-12.2
		c1.9-4.6,2.9-9.6,2.9-15C1543.2,139.9,1542.3,134.9,1540.4,130.4z M1533.6,157.6c-1.5,3.8-3.7,7.1-6.5,9.9c-2.8,2.8-6.1,5-9.8,6.6
		c-3.7,1.6-7.8,2.4-12.2,2.4c-4.4,0-8.4-0.8-12.2-2.4c-3.7-1.6-7-3.8-9.7-6.6c-2.7-2.8-4.8-6.1-6.4-9.9c-1.5-3.8-2.3-7.8-2.3-12.2
		c0-4.4,0.8-8.4,2.3-12.2c1.5-3.7,3.6-7,6.4-9.9c2.8-2.8,6-5,9.8-6.6c3.8-1.6,7.8-2.4,12.2-2.4c4.5,0,8.5,0.8,12.3,2.3
		c3.7,1.5,6.9,3.7,9.6,6.5c2.7,2.8,4.8,6,6.4,9.8c1.5,3.8,2.3,7.8,2.3,12.2C1535.9,149.7,1535.1,153.7,1533.6,157.6z"/>
</g>
</svg>
